<?xml version="1.0" standalone="no"?>
<!DOCTYPE svg PUBLIC "-//W3C//DTD SVG 20010904//EN"
 "http://www.w3.org/TR/2001/REC-SVG-20010904/DTD/svg10.dtd">
<svg version="1.0" xmlns="http://www.w3.org/2000/svg"
 width="616.000000pt" height="616.000000pt" viewBox="0 0 616.000000 616.000000"
 preserveAspectRatio="xMidYMid meet">
<metadata>
Created by potrace 1.11, written by Peter Selinger 2001-2013
</metadata>
<g transform="translate(0.000000,616.000000) scale(0.100000,-0.100000)"
fill="#000000" stroke="none">
<path d="M3735 6141 c3 -5 -4 -12 -14 -16 -13 -4 -18 -11 -14 -22 4 -11 2 -14
-5 -9 -7 4 -12 2 -12 -5 0 -7 -3 -9 -7 -6 -9 9 -34 -64 -26 -76 3 -6 1 -7 -5
-3 -7 4 -12 1 -12 -9 0 -9 -5 -13 -11 -9 -7 4 -6 -2 2 -17 12 -23 11 -23 -6
-9 -17 14 -18 13 -12 -2 3 -10 3 -18 -1 -18 -17 0 -10 -40 6 -41 12 0 11 -3
-5 -9 -13 -5 -23 -12 -23 -15 0 -4 4 -4 9 -1 13 9 20 -31 8 -43 -6 -6 -18 -11
-26 -12 -11 0 -10 -3 4 -9 17 -7 17 -9 3 -9 -10 -1 -18 -8 -18 -16 0 -13 -2
-14 -14 -3 -8 7 -12 16 -9 21 2 4 -1 7 -8 7 -7 0 -9 3 -5 7 3 4 -6 13 -21 20
-16 7 -20 11 -11 9 10 -3 20 -1 23 5 4 5 2 8 -3 7 -6 -2 -10 1 -10 6 0 4 -14
17 -30 26 -17 10 -33 28 -37 39 -3 12 -13 21 -21 21 -8 0 -14 7 -14 16 0 10
-6 14 -15 10 -8 -3 -15 -2 -15 3 0 12 -43 6 -48 -7 -2 -7 -8 -10 -12 -7 -5 3
-12 0 -16 -6 -4 -7 -3 -9 3 -6 6 4 13 0 17 -8 3 -9 0 -15 -10 -15 -11 0 -13
-6 -9 -20 4 -12 1 -28 -7 -37 -11 -14 -11 -16 1 -8 11 6 13 4 7 -11 -5 -10 -9
-25 -9 -31 0 -7 -9 -13 -20 -13 -16 0 -17 -2 -7 -16 8 -8 9 -14 4 -13 -22 4
-34 -2 -34 -18 0 -14 -2 -15 -9 -4 -6 9 -11 10 -15 2 -11 -17 -766 -15 -766 2
0 8 -4 7 -10 -3 -6 -10 -10 -11 -10 -2 0 8 -17 12 -50 12 -33 0 -50 4 -50 13
0 8 -4 7 -10 -3 -6 -9 -10 -10 -10 -3 0 7 -25 13 -70 15 -39 2 -70 0 -70 -3 0
-10 -54 3 -62 15 -5 7 -8 6 -8 -3 0 -9 -6 -7 -19 7 -10 12 -24 22 -30 22 -7 0
-9 5 -5 12 4 6 0 16 -8 22 -8 6 -16 16 -16 21 -1 6 -8 10 -14 10 -7 0 -12 8
-12 18 1 9 -4 17 -10 17 -6 0 -12 10 -13 22 -1 11 -6 24 -10 27 -4 3 -10 15
-11 26 -4 19 -19 35 -35 35 -4 0 -17 -21 -29 -47 -29 -62 -32 -71 -19 -53 7 9
11 10 11 3 0 -6 -4 -14 -9 -17 -5 -4 -8 -17 -7 -30 2 -14 0 -30 -5 -37 -4 -8
-3 -19 3 -26 6 -8 7 -13 1 -13 -6 0 -9 -11 -8 -25 2 -14 -1 -25 -6 -25 -5 0
-8 -6 -7 -12 2 -8 -5 -12 -16 -10 -17 3 -18 1 -7 -11 9 -12 9 -17 0 -23 -8 -4
-9 -3 -5 4 4 7 1 12 -8 12 -8 0 -18 -5 -22 -12 -4 -7 -3 -8 4 -4 8 5 10 2 6
-9 -5 -11 -10 -13 -19 -5 -11 9 -12 7 -8 -8 2 -11 -1 -23 -8 -27 -8 -5 -10 -4
-5 3 5 8 2 10 -9 6 -11 -5 -13 -10 -5 -19 8 -10 8 -15 -1 -21 -8 -4 -9 -3 -5
4 4 7 1 12 -8 12 -8 0 -18 -5 -22 -12 -4 -7 -3 -8 4 -4 8 5 10 2 6 -9 -5 -12
-9 -13 -20 -4 -12 10 -13 8 -8 -6 5 -12 4 -16 -4 -11 -6 3 -13 2 -16 -3 -4 -5
-1 -13 5 -17 8 -5 9 -3 4 6 -5 9 -4 11 4 6 19 -12 2 -27 -19 -16 -13 7 -21 7
-26 -2 -4 -7 -3 -8 4 -4 7 4 12 1 12 -9 0 -9 -5 -13 -10 -10 -5 3 -10 1 -10
-5 0 -6 -5 -8 -12 -4 -10 6 -10 4 0 -8 10 -13 10 -18 1 -24 -7 -4 -9 -3 -6 3
4 6 1 13 -7 16 -10 4 -13 -1 -11 -18 1 -13 -1 -23 -4 -22 -3 1 -8 -2 -10 -8
-2 -5 -15 -16 -30 -23 -14 -7 -18 -10 -9 -8 10 3 20 1 23 -5 4 -5 1 -8 -7 -7
-7 2 -12 -3 -10 -10 1 -8 -2 -11 -8 -7 -6 3 -19 3 -31 0 -19 -7 -20 -7 -2 -21
17 -12 16 -13 -5 -9 -21 4 -22 2 -10 -12 7 -9 8 -14 2 -10 -7 4 -18 -1 -25
-10 -12 -14 -12 -15 -1 -9 26 16 -6 -31 -40 -59 -18 -15 -27 -24 -20 -20 7 3
12 0 12 -9 0 -10 -6 -13 -17 -9 -11 4 -14 3 -9 -5 4 -7 2 -12 -6 -12 -9 0 -9
-3 2 -10 10 -6 11 -10 3 -10 -7 0 -13 -7 -13 -16 0 -11 -5 -14 -16 -10 -14 5
-15 4 -4 -9 10 -12 10 -15 -4 -15 -9 0 -15 -6 -14 -12 2 -7 -3 -12 -11 -10
-12 3 -12 1 0 -14 8 -10 9 -15 3 -11 -7 4 -14 0 -17 -7 -3 -8 -1 -17 6 -20 7
-2 4 -5 -7 -5 -12 -1 -16 -6 -12 -16 3 -8 1 -15 -4 -15 -5 0 -7 -6 -4 -13 2
-7 -3 -21 -11 -32 -15 -19 -16 -19 -5 5 11 24 10 24 -5 5 -8 -11 -13 -25 -11
-32 3 -7 1 -13 -5 -13 -6 0 -7 -4 -4 -10 3 -5 1 -10 -6 -10 -8 0 -8 -4 1 -15
10 -12 9 -15 -4 -15 -10 0 -14 -4 -11 -10 3 -5 1 -10 -5 -10 -6 0 -9 -4 -6 -9
3 -5 -2 -12 -11 -15 -12 -5 -13 -10 -5 -18 7 -7 4 -18 -13 -36 -17 -18 -21
-29 -14 -38 7 -9 5 -15 -7 -22 -11 -6 -13 -12 -5 -16 8 -5 6 -14 -4 -30 -9
-13 -13 -30 -10 -38 4 -9 -1 -18 -10 -22 -9 -3 -13 -10 -10 -16 3 -5 1 -10 -6
-10 -10 0 -10 -3 -2 -11 9 -9 8 -15 -3 -26 -11 -12 -12 -18 -3 -29 9 -11 9
-14 0 -14 -7 0 -10 -4 -7 -9 3 -4 -1 -17 -8 -27 -10 -13 -11 -23 -4 -31 6 -8
7 -13 1 -13 -5 0 -9 -13 -8 -30 1 -16 -2 -30 -7 -30 -5 0 -7 -4 -3 -9 3 -5 1
-12 -5 -16 -6 -4 -7 -13 -2 -21 10 -18 3 -84 -9 -84 -6 0 -5 -9 1 -20 9 -17 7
-22 -11 -29 -15 -5 -18 -10 -11 -15 9 -5 8 -11 -3 -23 -12 -11 -13 -19 -5 -28
8 -10 8 -15 0 -20 -8 -5 -8 -11 -1 -19 7 -9 7 -17 -2 -26 -9 -10 -9 -11 1 -6
7 4 13 2 14 -6 0 -7 2 -17 3 -23 2 -5 3 -16 4 -23 0 -7 5 -11 9 -8 5 3 9 -1 9
-9 0 -8 -4 -12 -8 -10 -4 3 -5 -4 -2 -16 5 -16 8 -18 15 -7 7 9 8 7 5 -9 -3
-16 0 -23 9 -23 8 0 14 -4 14 -10 0 -5 23 -10 50 -10 28 0 50 -4 50 -10 0 -5
5 -10 11 -10 5 0 7 6 4 13 -4 6 1 3 9 -7 12 -15 16 -16 16 -5 1 10 5 9 15 -5
11 -14 15 -16 15 -5 0 8 12 1 29 -18 27 -31 50 -45 36 -23 -3 6 1 7 9 4 9 -3
13 -10 10 -15 -3 -5 -1 -9 5 -9 5 0 17 -7 25 -16 12 -12 16 -12 16 -2 0 10 3
9 10 -2 9 -13 10 -13 10 0 0 13 1 13 10 0 7 -11 10 -12 10 -2 0 8 5 12 12 10
6 -2 25 10 40 28 20 22 36 31 52 30 19 -2 23 1 18 13 -5 14 -3 14 10 3 17 -14
34 0 23 18 -3 5 0 7 8 4 8 -3 18 0 22 6 5 8 12 5 22 -7 8 -10 12 -12 8 -6 -4
9 -1 11 9 7 9 -3 16 -12 16 -19 0 -7 6 -16 13 -18 9 -4 9 -6 -1 -6 -10 -1 -10
-6 -2 -21 8 -15 8 -20 -1 -20 -8 0 -8 -4 -1 -13 7 -8 7 -18 2 -27 -12 -19 -13
-33 -1 -26 5 3 11 -3 14 -14 3 -11 1 -18 -4 -14 -5 3 -9 1 -9 -4 0 -6 7 -13
16 -16 9 -4 14 -9 11 -13 -4 -3 -1 -13 6 -21 10 -13 9 -15 -3 -8 -9 4 -8 2 2
-7 10 -8 15 -17 11 -21 -4 -4 -1 -11 7 -16 9 -6 10 -10 3 -10 -8 0 -8 -7 0
-30 6 -16 14 -30 18 -30 3 0 5 -11 4 -25 -2 -14 2 -28 7 -32 7 -4 8 -1 3 7 -5
8 -4 11 3 7 5 -4 8 -17 4 -29 -3 -13 -1 -19 5 -15 6 4 13 0 17 -8 3 -10 -1
-15 -12 -16 -14 0 -14 -2 3 -8 11 -5 23 -7 27 -5 4 3 5 -7 2 -20 -2 -14 1 -28
6 -31 8 -5 8 -11 0 -20 -8 -10 -8 -15 0 -20 8 -5 8 -10 0 -20 -7 -9 -8 -15 -1
-19 6 -4 8 -13 5 -21 -4 -8 -10 -12 -15 -9 -5 3 -9 0 -9 -5 0 -6 6 -11 13 -11
8 0 8 -3 2 -8 -6 -4 -12 -25 -14 -47 -1 -22 -8 -46 -14 -54 -9 -12 -9 -13 1
-7 6 4 12 3 12 -2 0 -6 -8 -13 -17 -17 -16 -6 -15 -9 7 -27 14 -12 18 -19 8
-15 -14 5 -15 1 -8 -24 6 -18 5 -31 -2 -35 -7 -5 -8 -2 -3 6 5 8 4 11 -2 7
-11 -7 -10 -48 2 -66 3 -6 0 -11 -7 -11 -9 -1 -8 -4 3 -13 26 -20 33 -67 12
-84 -10 -8 -12 -12 -5 -8 6 3 12 1 12 -4 0 -6 -5 -11 -11 -11 -6 0 -9 -7 -5
-15 3 -8 0 -14 -7 -12 -7 1 -11 -4 -9 -11 2 -10 -2 -10 -18 -2 -16 9 -18 8
-14 -5 4 -9 0 -15 -9 -15 -9 0 -19 -4 -22 -10 -3 -6 1 -7 12 -4 10 3 7 -1 -7
-9 -14 -9 -28 -13 -31 -11 -3 2 -14 -5 -24 -16 -9 -10 -23 -16 -31 -13 -9 3
-14 -1 -14 -12 0 -10 5 -13 12 -9 7 4 8 3 4 -4 -5 -9 -13 -9 -27 -1 -19 10
-20 9 -8 -13 12 -22 11 -22 -6 -8 -11 9 -16 10 -11 3 4 -7 3 -13 -3 -13 -6 0
-8 -7 -4 -15 3 -10 0 -15 -8 -13 -9 2 -13 -4 -11 -15 2 -10 -6 -21 -20 -27
-20 -8 -21 -9 -4 -9 20 -1 20 -1 0 -17 -10 -8 -12 -13 -4 -9 12 5 12 4 -1 -7
-9 -7 -14 -19 -12 -25 3 -7 0 -13 -7 -13 -6 0 -9 -3 -7 -7 8 -14 -12 -54 -24
-47 -8 4 -9 0 -4 -15 4 -13 2 -21 -6 -21 -8 0 -8 -5 2 -17 9 -11 10 -14 2 -9
-9 5 -11 2 -6 -10 5 -13 3 -15 -7 -9 -9 5 -11 4 -6 -4 6 -9 11 -9 22 0 13 10
18 6 15 -13 -2 -16 29 5 34 23 4 11 11 17 16 14 5 -4 6 2 2 11 -5 13 -3 16 10
11 14 -5 15 -2 7 19 -9 23 -8 24 11 14 18 -10 19 -10 10 8 -9 17 -7 19 14 16
14 -1 23 2 19 7 -3 5 -11 6 -17 2 -9 -5 -9 -3 0 8 8 10 24 14 49 11 24 -3 32
-7 23 -13 -11 -6 -10 -12 4 -27 16 -18 16 -20 2 -26 -9 -3 -13 -11 -9 -17 5
-8 3 -9 -5 -4 -14 8 -61 -31 -61 -52 0 -7 -14 -27 -32 -43 -17 -17 -25 -29
-17 -27 8 2 11 2 6 0 -4 -3 -4 -9 -1 -15 4 -5 -4 -4 -17 3 -22 11 -23 11 -10
-5 13 -16 13 -17 -4 -14 -14 2 -21 -6 -27 -31 -5 -19 -17 -40 -25 -46 -10 -8
-13 -17 -8 -26 8 -12 6 -12 -8 0 -15 12 -17 12 -11 -4 5 -13 4 -16 -4 -11 -8
5 -10 2 -6 -8 4 -10 1 -16 -9 -16 -8 0 -17 -9 -20 -21 -4 -13 -10 -18 -18 -13
-8 4 -10 3 -5 -4 4 -7 3 -12 -2 -12 -6 0 -9 -8 -8 -17 0 -10 -5 -17 -12 -15
-10 2 -10 -2 -3 -16 7 -14 6 -19 -4 -19 -8 0 -11 5 -8 10 3 6 1 7 -5 3 -6 -4
-8 -14 -5 -24 6 -15 5 -16 -12 -2 -15 12 -17 12 -10 1 5 -9 2 -18 -9 -27 -10
-7 -17 -16 -17 -21 1 -16 -17 -68 -19 -53 0 8 -7 -3 -15 -24 -8 -22 -11 -44
-8 -49 4 -6 1 -7 -7 -2 -10 6 -12 3 -8 -13 4 -12 2 -22 -4 -22 -6 0 -8 -7 -4
-15 3 -10 -1 -15 -12 -15 -13 0 -14 -2 -4 -8 14 -9 6 -42 -10 -42 -7 0 -7 -4
0 -13 7 -8 6 -18 -3 -31 -8 -10 -11 -24 -8 -32 3 -8 -1 -14 -8 -14 -11 0 -11
-3 1 -10 9 -6 10 -10 3 -10 -6 0 -12 -8 -12 -17 0 -10 -2 -27 -5 -38 -2 -11
-5 -26 -5 -34 -1 -8 -4 -11 -8 -8 -11 11 -33 -52 -33 -94 0 -24 -5 -39 -12
-39 -8 0 -5 -7 6 -15 12 -9 15 -15 7 -15 -10 0 -10 -5 2 -23 10 -16 12 -28 5
-40 -6 -11 -5 -17 1 -17 5 0 8 -11 7 -25 -2 -14 3 -30 10 -36 7 -5 11 -19 9
-29 -2 -11 1 -19 8 -17 7 1 11 -4 9 -11 -1 -8 2 -11 7 -8 5 4 12 2 15 -3 4 -5
-2 -12 -11 -14 -13 -3 -14 -5 -3 -6 8 -1 24 -18 36 -39 11 -20 25 -36 30 -35
7 1 10 -20 9 -52 0 -29 2 -52 6 -49 4 2 11 -2 16 -10 4 -8 12 -15 16 -15 12 0
37 -28 31 -34 -3 -3 2 -4 12 -3 10 2 28 -7 41 -18 46 -43 51 -46 56 -33 4 9 6
9 6 -1 1 -7 5 -10 11 -7 6 4 7 -1 3 -12 -6 -16 -5 -17 12 -3 11 9 16 10 11 3
-4 -8 -1 -13 9 -13 9 0 13 -5 9 -11 -4 -7 2 -7 17 1 13 7 21 9 17 5 -4 -4 -1
-14 7 -21 17 -17 28 -18 20 -1 -4 6 2 1 13 -12 12 -15 25 -22 35 -18 9 3 17 2
19 -3 2 -5 14 -11 27 -13 14 -2 27 -9 29 -15 2 -7 8 -12 13 -12 6 0 7 6 3 13
-6 10 -4 10 7 0 7 -7 26 -13 41 -13 16 0 28 -6 28 -12 0 -9 4 -8 11 2 8 11 12
12 16 3 3 -9 32 -13 94 -13 59 0 88 4 84 10 -8 13 18 8 27 -5 5 -6 8 -5 8 3 0
6 7 12 15 12 8 0 15 6 15 13 0 8 4 7 10 -3 9 -13 10 -13 10 0 0 12 2 13 9 1 6
-9 10 -10 12 -2 3 7 14 13 26 14 12 0 20 4 17 8 -2 4 6 11 18 15 39 13 49 13
55 -2 3 -8 10 -11 17 -7 6 3 6 1 -1 -8 -14 -14 -17 -30 -5 -28 4 1 14 1 22 0
13 -1 13 -2 0 -11 -13 -8 -12 -10 3 -10 11 0 15 -5 11 -11 -4 -8 1 -9 17 -4
24 7 24 7 4 -9 -19 -15 -19 -16 -1 -9 16 5 18 3 13 -12 -7 -16 -5 -16 10 -4 9
8 14 9 10 3 -4 -6 3 -20 14 -30 12 -11 30 -35 40 -54 15 -27 18 -29 14 -10 -5
19 -4 22 4 10 6 -8 11 -23 11 -32 0 -10 5 -18 11 -18 5 0 7 5 3 12 -4 7 -3 8
4 4 7 -4 17 -17 22 -29 11 -21 11 -21 -4 -3 -9 11 -16 15 -16 10 0 -19 23 -34
36 -23 9 8 11 5 7 -13 -4 -18 -3 -20 6 -8 9 12 11 11 11 -9 0 -19 3 -21 14
-12 12 10 14 8 9 -11 -3 -16 -2 -19 5 -10 7 10 11 5 16 -20 5 -26 9 -30 16
-18 8 13 12 12 25 -7 9 -13 25 -23 35 -23 11 0 25 -9 32 -20 7 -11 18 -20 24
-20 7 0 14 -7 18 -15 3 -9 12 -12 22 -8 12 4 15 3 10 -5 -5 -8 0 -12 13 -12
11 0 23 -4 26 -10 3 -6 -1 -7 -12 -4 -12 4 -11 1 4 -8 12 -7 22 -17 23 -23 1
-5 4 -12 7 -15 4 -3 3 1 -1 8 -10 17 2 15 21 -3 8 -8 19 -13 24 -10 5 4 9 1 9
-4 0 -6 7 -11 16 -11 9 0 23 -8 32 -18 10 -9 14 -13 10 -8 -18 23 -6 27 13 5
11 -13 27 -23 35 -21 8 2 14 -2 14 -8 0 -6 6 -8 13 -4 9 6 9 5 0 -7 -10 -13
-10 -16 2 -16 8 0 15 4 15 9 0 5 7 2 16 -6 8 -9 20 -14 25 -11 5 4 9 1 9 -4 0
-6 9 -11 20 -11 11 0 20 -5 20 -11 0 -8 6 -7 17 2 11 10 14 10 9 2 -5 -9 0
-13 13 -13 12 0 21 -6 21 -12 0 -9 4 -8 10 2 6 10 10 11 10 3 0 -7 9 -13 20
-13 11 0 20 -6 20 -12 0 -9 4 -8 10 2 6 10 10 11 10 3 0 -9 17 -13 50 -13 33
0 50 -4 50 -12 0 -9 4 -8 10 2 7 11 10 11 10 2 0 -10 43 -13 210 -11 116 1
210 5 210 10 0 5 11 9 25 9 14 0 25 6 25 13 0 8 4 7 11 -3 8 -11 12 -12 16 -2
2 6 18 12 34 12 16 0 29 5 29 10 0 6 5 10 11 10 5 0 7 -5 3 -12 -4 -6 3 -4 15
5 13 8 30 13 38 10 9 -4 16 2 20 17 4 16 8 18 14 8 7 -10 14 -7 29 12 17 21
21 23 30 10 8 -13 10 -13 10 2 0 9 5 20 12 24 7 4 8 3 4 -4 -12 -20 5 -13 26
11 11 12 17 16 13 10 -3 -7 -1 -13 4 -13 6 0 11 5 11 11 0 6 7 9 14 6 10 -4
13 -1 10 7 -3 7 2 13 11 14 8 1 22 3 30 4 10 1 12 5 5 13 -8 9 -4 12 14 10 17
-2 23 1 20 10 -4 9 1 12 13 10 10 -1 30 9 45 22 14 14 31 22 37 19 7 -5 8 -1
4 10 -3 10 -2 15 3 12 11 -6 45 28 36 37 -4 3 1 3 11 -1 12 -4 17 -1 17 9 0 9
5 19 11 23 8 4 9 -1 5 -17 -5 -20 -3 -19 7 4 7 15 17 24 22 20 4 -5 5 0 2 9
-4 11 0 19 14 23 10 4 19 12 19 19 0 8 7 20 17 27 15 13 15 12 4 -9 -7 -13
-10 -26 -8 -29 3 -2 8 5 12 16 3 12 11 21 17 21 6 0 5 7 -3 17 -13 15 -12 15
8 5 19 -11 21 -9 19 11 -2 16 3 23 16 24 27 2 48 22 41 39 -4 10 0 12 11 8 11
-4 16 -1 16 10 0 9 5 15 12 13 7 -1 12 5 13 13 0 8 8 14 17 14 9 -1 15 5 14
14 -3 19 15 42 27 35 4 -2 7 -1 6 4 -3 10 19 63 25 63 3 0 3 -8 0 -17 -5 -17
-5 -17 6 0 6 9 9 21 6 26 -3 5 2 15 12 22 16 13 16 13 2 -6 -14 -19 -14 -19 3
-6 10 8 15 21 12 29 -3 10 0 12 10 8 10 -4 15 1 15 14 0 11 4 20 8 20 5 0 9 7
9 15 0 8 -5 15 -11 15 -5 0 -1 7 10 16 10 8 13 12 6 9 -9 -5 -13 -1 -11 11 2
11 0 24 -4 31 -4 6 -3 15 3 18 8 5 7 11 -1 21 -9 11 -9 14 0 14 7 0 10 4 7 9
-3 4 1 17 8 27 11 14 12 22 3 33 -9 10 -7 16 8 27 10 8 13 14 7 14 -7 0 -12 9
-12 21 0 13 4 18 13 13 9 -6 9 -5 0 7 -10 12 -10 18 0 29 9 10 9 11 0 6 -7 -4
-13 -2 -13 3 0 6 5 11 11 11 5 0 8 4 5 9 -3 5 1 12 10 15 14 5 14 9 3 23 -12
14 -12 16 0 8 11 -6 13 -4 8 8 -3 9 -1 19 5 23 6 4 8 3 4 -4 -3 -6 -2 -14 4
-17 6 -4 10 -3 8 2 -1 6 9 71 18 106 1 4 2 16 3 28 0 11 5 18 9 15 5 -3 9 1 9
9 0 8 -5 11 -11 8 -6 -4 -5 1 3 10 7 9 10 17 6 17 -4 0 -2 6 4 14 8 10 9 16 1
21 -7 4 -7 12 0 24 5 10 6 21 3 25 -3 3 1 6 11 6 9 0 14 5 11 10 -4 6 -12 8
-18 4 -7 -3 -5 0 3 8 12 9 14 23 9 51 -3 21 -2 40 2 43 5 2 6 11 2 19 -3 8 0
15 7 15 6 0 11 10 10 23 -1 12 -1 27 0 32 6 25 4 41 -5 47 -9 7 15 12 40 9 6
-1 1 6 -9 14 -19 14 -11 21 17 16 4 -1 3 8 -3 18 -7 14 -7 22 2 27 7 5 8 3 3
-6 -5 -8 -4 -11 2 -7 11 7 11 46 0 64 -5 9 -2 13 9 13 14 0 12 5 -9 23 -21 18
-26 32 -28 74 -2 29 0 56 4 59 4 4 2 13 -4 21 -6 7 -8 13 -3 13 5 0 9 20 9 44
0 24 -3 42 -6 40 -4 -2 -9 5 -12 16 -3 11 -1 18 4 14 5 -3 6 2 3 10 -3 9 -10
16 -15 16 -6 0 -5 8 1 19 6 13 7 22 0 26 -6 3 -6 15 0 30 6 16 6 27 -1 31 -7
4 -7 10 0 18 7 9 7 16 -1 24 -7 7 -8 12 -2 12 12 0 12 29 0 48 -4 6 -5 16 -1
21 3 5 0 13 -6 17 -8 5 -9 3 -4 -6 5 -8 4 -11 -3 -6 -7 4 -8 17 -2 36 5 19 5
28 -1 25 -5 -4 -9 5 -9 20 0 15 -7 28 -16 32 -15 6 -15 8 2 21 18 13 18 14 -3
7 -19 -5 -23 -2 -23 15 0 15 -5 20 -14 17 -7 -3 -13 0 -13 6 1 54 -5 107 -11
103 -5 -3 -9 1 -9 9 0 8 4 12 8 10 4 -3 5 4 2 15 -3 11 -8 20 -12 20 -4 0 -6
18 -6 39 0 34 -2 38 -14 28 -12 -10 -14 -8 -9 10 4 14 1 24 -9 27 -8 3 -11 11
-8 17 4 5 7 26 7 45 0 19 3 34 8 34 4 0 7 20 7 45 0 25 3 48 6 52 4 3 2 14 -3
24 -6 11 -6 20 -1 24 6 3 8 14 6 25 -3 13 0 18 7 14 7 -5 9 0 6 14 -4 14 -1
25 9 31 13 7 13 9 -2 15 -15 5 -15 9 -4 23 12 15 12 16 -2 11 -13 -5 -16 -2
-11 14 4 16 2 19 -8 13 -10 -6 -12 -4 -6 11 11 27 15 64 6 59 -4 -3 -10 4 -13
15 -3 11 -1 18 4 14 5 -3 6 2 3 10 -3 9 -10 16 -16 16 -5 0 -6 5 -2 12 5 8 1
9 -12 5 -18 -7 -18 -6 -2 6 11 8 14 17 8 23 -5 5 -10 26 -12 47 -1 20 -5 37
-10 37 -8 0 -40 63 -37 76 4 22 -2 35 -12 28 -8 -5 -9 -2 -1 11 7 14 6 22 -7
34 -9 9 -11 12 -3 7 11 -8 11 -5 1 18 -9 19 -15 23 -20 14 -5 -7 -7 0 -5 17 2
17 -2 33 -8 37 -8 5 -7 8 2 8 7 0 10 5 7 10 -3 6 -1 10 4 10 6 0 11 5 11 11 0
5 -4 7 -10 4 -5 -3 -10 -4 -10 0 0 3 12 10 26 15 14 6 22 14 19 20 -4 6 1 7
11 3 10 -4 15 -2 11 3 -3 6 8 11 26 12 45 4 56 17 47 57 -5 21 -4 35 2 35 5 0
6 5 3 10 -3 6 0 10 7 10 9 0 9 3 -2 10 -13 9 -13 10 0 10 12 0 13 2 1 9 -7 5
-10 14 -7 20 4 6 3 11 -2 11 -17 0 -53 38 -43 44 7 5 7 15 1 31 -5 14 -6 25
-1 25 5 0 5 21 0 46 -5 25 -6 50 -3 55 3 5 2 9 -3 8 -23 -4 -32 2 -26 18 4 11
3 14 -5 9 -7 -4 -12 -1 -12 8 0 9 -4 16 -10 16 -5 0 -10 6 -10 14 0 8 -7 17
-16 20 -10 4 -14 14 -11 25 3 13 -3 22 -20 30 -14 6 -21 16 -17 22 3 6 0 15
-7 20 -11 7 -11 9 -1 9 10 0 10 5 2 20 -8 15 -8 20 1 20 8 0 8 4 -1 15 -7 8
-9 15 -5 15 4 0 2 6 -5 14 -6 8 -10 23 -8 33 1 10 -1 24 -5 31 -5 6 -4 12 2
12 7 0 7 8 1 24 -5 13 -6 27 -3 30 3 3 1 12 -5 19 -7 8 -9 17 -5 21 4 4 -1 4
-11 0 -14 -5 -17 -4 -12 4 4 7 1 12 -8 12 -8 0 -17 -6 -19 -12 -4 -10 -6 -10
-6 0 -1 7 -5 10 -11 7 -5 -3 -10 3 -10 13 0 11 -8 23 -17 27 -15 5 -16 4 -5
-6 6 -7 12 -17 12 -22 0 -5 -7 -2 -15 7 -8 8 -15 20 -15 26 0 16 -42 58 -62
62 -16 3 -17 6 -3 31 9 18 10 25 2 20 -9 -5 -9 -3 -1 8 20 25 23 59 7 74 -11
12 -11 15 -1 15 10 0 10 2 -1 9 -8 5 -10 14 -5 22 6 12 5 12 -8 1 -19 -16 -37
3 -19 21 7 7 6 14 -6 22 -14 11 -14 12 1 13 45 5 46 5 36 17 -8 9 -4 12 15 10
17 -2 25 2 25 11 0 9 5 12 10 9 6 -3 10 -1 10 5 0 6 5 8 10 5 6 -3 10 -1 10 6
0 7 3 9 7 5 4 -3 13 4 20 16 9 15 12 17 11 6 -2 -9 2 -17 7 -17 6 0 9 7 7 15
-2 8 4 14 13 14 8 0 15 5 15 11 0 5 -6 7 -12 4 -7 -4 -4 1 6 9 13 11 15 16 6
16 -9 0 -8 6 6 22 12 14 14 18 4 13 -8 -4 -4 4 10 20 14 16 19 25 13 21 -8 -5
-13 -1 -14 11 0 10 -3 13 -6 6 -2 -7 -9 -13 -14 -13 -6 0 -7 5 -4 10 3 6 -3
10 -15 10 -12 0 -19 4 -16 9 3 4 -6 7 -19 5 -17 -1 -25 3 -25 12 0 9 -4 13 -9
9 -5 -3 -12 -1 -16 4 -3 6 -13 7 -22 4 -11 -4 -14 -3 -9 5 5 8 -4 12 -30 12
-35 0 -36 1 -22 18 9 9 18 26 20 37 2 11 9 19 16 18 6 -2 9 4 5 13 -3 9 -15
14 -32 12 -14 -1 -32 1 -39 5 -7 5 -12 3 -12 -3 0 -7 -6 -8 -19 -1 -10 6 -21
7 -25 4 -3 -3 -6 0 -6 8 0 11 -2 11 -10 -1 -6 -10 -10 -11 -10 -2 0 6 -6 12
-14 12 -8 0 -17 -6 -19 -12 -4 -10 -6 -9 -6 1 -1 11 -4 11 -16 1 -9 -7 -18
-10 -22 -7 -3 4 -12 -1 -20 -11 -10 -13 -13 -14 -11 -2 2 10 -4 14 -16 12 -14
-3 -17 1 -13 13 4 9 1 18 -8 21 -8 4 -12 11 -8 17 4 6 1 7 -7 2 -10 -6 -9 -11
5 -22 11 -7 15 -13 9 -13 -12 1 -46 26 -45 34 3 24 0 27 -16 15 -9 -8 -14 -9
-10 -2 4 6 1 17 -6 25 -8 7 -12 19 -9 27 3 8 -3 20 -14 28 -12 9 -14 13 -4 13
11 0 10 3 -2 13 -14 11 -25 47 -31 99 -1 9 -6 14 -11 11 -5 -4 -7 3 -4 15 4
12 2 20 -3 16 -5 -3 -10 0 -10 5 -1 6 -3 16 -4 21 -1 6 -3 14 -4 20 0 6 -7 9
-13 8 -7 -2 -12 5 -10 15 2 9 -2 17 -9 17 -6 0 -9 8 -6 20 3 13 0 20 -9 20
-13 0 -18 12 -15 33 0 4 -4 7 -10 7 -5 0 -8 4 -4 9 3 5 -2 16 -10 25 -8 8 -14
20 -13 27 2 7 -8 16 -22 20 -14 4 -19 7 -11 8 9 1 7 8 -9 21 -13 11 -27 20
-31 20 -5 0 -6 7 -3 15 4 10 0 15 -12 15 -16 0 -17 2 -4 10 8 5 10 10 5 10 -6
0 -16 -5 -23 -12 -9 -9 -12 -9 -12 0 0 7 -5 12 -11 12 -5 0 -8 -4 -4 -9z m275
-421 c0 -5 -2 -10 -4 -10 -3 0 -8 5 -11 10 -3 6 -1 10 4 10 6 0 11 -4 11 -10z
m454 -905 c9 -14 15 -25 13 -25 -2 0 -13 11 -25 25 -12 14 -18 25 -13 25 5 0
16 -11 25 -25z m-3264 -5 c0 -5 -5 -10 -11 -10 -5 0 -7 5 -4 10 3 6 8 10 11
10 2 0 4 -4 4 -10z m507 -2306 c-3 -3 -12 -4 -19 -1 -8 3 -5 6 6 6 11 1 17 -2
13 -5z m-47 -72 c0 -4 -10 -13 -22 -21 -23 -14 -23 -14 -4 8 20 22 26 25 26
13z m-366 -1468 c5 -14 4 -15 -9 -4 -17 14 -19 20 -6 20 5 0 12 -7 15 -16z
m3281 -423 c3 -5 2 -12 -3 -15 -5 -3 -9 1 -9 9 0 17 3 19 12 6z m-295 -264 c0
-2 -8 -11 -18 -20 -15 -14 -19 -15 -19 -2 0 8 4 12 8 9 4 -2 10 0 14 6 6 10
15 14 15 7z"/>
<path d="M3450 5947 c0 -17 20 -45 37 -51 16 -5 16 -5 2 6 -8 7 -21 22 -27 33
-6 11 -12 16 -12 12z"/>
<path d="M1443 5335 c0 -8 4 -12 9 -9 5 3 6 10 3 15 -9 13 -12 11 -12 -6z"/>
<path d="M1515 3880 c-10 -11 -13 -20 -8 -20 6 0 14 7 17 16 3 8 11 12 17 8 8
-4 9 -3 5 4 -9 16 -10 15 -31 -8z"/>
<path d="M1776 2853 c-6 -14 -5 -15 5 -6 7 7 10 15 7 18 -3 3 -9 -2 -12 -12z"/>
<path d="M2318 590 c12 -12 22 -26 22 -32 0 -6 3 -8 6 -5 9 9 -24 57 -38 57
-7 0 -2 -9 10 -20z"/>
<path d="M2612 315 c12 -14 25 -25 29 -25 5 0 -2 11 -15 25 -13 14 -26 25 -30
25 -3 0 4 -11 16 -25z"/>
</g>
</svg>
