<?xml version="1.0" standalone="no"?>
<!DOCTYPE svg PUBLIC "-//W3C//DTD SVG 20010904//EN"
 "http://www.w3.org/TR/2001/REC-SVG-20010904/DTD/svg10.dtd">
<svg version="1.0" xmlns="http://www.w3.org/2000/svg"
 width="800.000000pt" height="800.000000pt" viewBox="0 0 800.000000 800.000000"
 preserveAspectRatio="xMidYMid meet">
<metadata>
Created by potrace 1.11, written by Peter Selinger 2001-2013
</metadata>
<g transform="translate(0.000000,800.000000) scale(0.100000,-0.100000)"
fill="#000000" stroke="none">
<path d="M1578 7846 c-15 -13 -24 -27 -20 -31 4 -4 -3 -2 -16 4 -22 12 -23 11
-13 -8 9 -16 9 -19 -2 -15 -8 3 -20 -3 -28 -13 -12 -16 -12 -17 1 -8 13 8 12
7 0 -5 -9 -9 -15 -21 -12 -28 2 -6 -1 -12 -8 -12 -6 0 -9 -4 -6 -9 3 -5 -1
-14 -8 -20 -9 -7 -13 -26 -12 -47 2 -18 -1 -34 -7 -34 -6 0 -8 -3 -4 -6 3 -3
2 -17 -3 -30 -6 -16 -6 -24 1 -24 6 0 7 -6 2 -12 -10 -17 -10 -39 -1 -60 6
-11 3 -20 -8 -26 -10 -6 -15 -16 -11 -26 4 -9 3 -16 -1 -16 -5 0 -5 -25 -2
-55 3 -30 3 -61 -1 -67 -4 -7 -3 -18 3 -25 6 -7 6 -13 1 -13 -5 0 -6 -24 -3
-55 3 -30 3 -61 -1 -67 -4 -7 -3 -18 3 -25 6 -7 6 -13 1 -13 -5 0 -6 -24 -3
-55 3 -30 3 -61 -1 -67 -4 -7 -3 -18 3 -25 6 -7 6 -13 1 -13 -5 0 -6 -24 -3
-55 3 -30 3 -61 -1 -67 -4 -7 -3 -18 3 -25 6 -7 7 -13 2 -13 -5 0 -7 -52 -4
-116 3 -64 2 -121 -2 -127 -4 -6 -2 -17 4 -24 7 -9 7 -13 0 -13 -6 0 -7 -13
-2 -34 4 -19 4 -40 0 -47 -5 -7 -4 -23 1 -36 5 -15 5 -23 -2 -23 -6 0 -7 -5
-3 -12 4 -6 9 -27 10 -45 1 -19 7 -40 14 -48 10 -12 10 -18 1 -29 -9 -10 -9
-16 -1 -21 8 -5 8 -10 0 -20 -8 -10 -8 -15 0 -20 8 -5 8 -10 0 -20 -8 -10 -8
-15 0 -20 6 -4 7 -12 2 -18 -9 -13 -8 -54 1 -64 4 -3 2 -14 -4 -24 -7 -13 -6
-19 2 -19 6 0 9 -7 5 -15 -3 -8 0 -15 7 -15 9 0 8 -3 -1 -9 -11 -6 -10 -10 3
-15 14 -5 15 -9 6 -20 -8 -10 -9 -16 -1 -21 6 -4 7 -12 1 -23 -5 -9 -5 -26 0
-39 5 -13 5 -23 0 -23 -12 0 5 -81 19 -90 9 -6 9 -9 1 -15 -9 -5 -9 -10 0 -21
9 -11 8 -14 -2 -14 -10 0 -10 -3 -1 -12 7 -7 8 -17 2 -29 -6 -11 -6 -20 -1
-23 5 -3 7 -15 4 -25 -3 -10 1 -22 8 -26 8 -6 10 -4 4 5 -5 9 -4 11 4 6 6 -4
8 -12 5 -18 -9 -15 -11 -67 -3 -62 4 2 9 -5 12 -16 3 -11 1 -18 -4 -14 -10 6
-1 -25 13 -43 5 -7 5 -14 -2 -18 -6 -3 -7 -11 -3 -18 11 -19 9 -58 -4 -69 -7
-6 -10 -15 -6 -21 4 -6 -2 -8 -15 -5 -12 4 -22 3 -22 -1 0 -4 -14 -5 -31 -3
-19 3 -26 7 -19 12 7 5 8 10 2 14 -5 3 -8 17 -7 31 2 14 -2 28 -7 32 -7 4 -8
1 -4 -8 4 -8 1 -6 -7 4 -11 14 -16 15 -20 5 -4 -11 -6 -11 -6 0 -1 7 -5 10
-11 7 -5 -3 -10 0 -10 7 0 7 -5 5 -11 -6 -9 -15 -13 -16 -20 -5 -6 10 -9 6 -9
-13 0 -16 -4 -28 -10 -28 -5 0 -7 -7 -4 -15 5 -12 -2 -15 -28 -15 -32 0 -74
-31 -61 -44 4 -3 1 -6 -5 -6 -9 0 -9 -6 0 -22 7 -13 17 -26 21 -29 5 -3 8 -9
8 -13 -2 -15 0 -16 20 -5 16 8 20 8 14 0 -4 -7 -3 -17 2 -24 5 -7 8 -18 7 -24
-1 -7 -2 -18 -3 -24 -1 -8 -5 -8 -14 0 -11 8 -13 6 -13 -12 1 -13 -4 -21 -11
-19 -7 1 -13 -2 -13 -8 0 -5 -9 -10 -20 -10 -18 0 -21 -6 -19 -45 2 -24 0 -48
-4 -51 -4 -4 -2 -13 4 -21 6 -7 8 -13 3 -13 -5 0 -7 -34 -4 -76 3 -42 2 -81
-2 -87 -4 -6 -2 -17 4 -24 7 -9 7 -13 -2 -13 -9 0 -10 -3 -1 -13 8 -10 7 -17
-1 -25 -8 -8 -9 -12 -1 -12 6 0 14 -7 17 -16 4 -10 2 -13 -6 -8 -6 4 -4 -3 5
-16 13 -19 14 -27 4 -39 -7 -9 -8 -12 -1 -8 16 9 35 -88 20 -103 -7 -7 -7 -10
1 -10 6 0 14 -7 17 -16 4 -10 2 -13 -7 -8 -6 4 -4 -2 6 -13 12 -14 15 -23 7
-28 -7 -4 -4 -12 8 -23 10 -9 11 -12 3 -7 -11 7 -13 7 -7 -2 4 -7 23 -20 42
-29 26 -12 32 -19 22 -25 -10 -7 -10 -9 2 -9 12 0 13 -2 1 -9 -11 -7 -11 -9 0
-14 11 -4 11 -6 1 -6 -7 -1 -10 -5 -7 -11 3 -5 2 -10 -4 -10 -6 0 -6 -11 -1
-30 5 -19 5 -30 -1 -30 -6 0 -8 -4 -5 -9 4 -5 8 -42 10 -82 4 -71 -5 -106 -25
-93 -5 3 -9 0 -9 -6 0 -6 -5 -8 -10 -5 -6 3 -19 3 -31 0 -14 -5 -17 -10 -10
-19 6 -7 6 -17 1 -26 -5 -9 -5 -19 2 -27 7 -9 7 -13 -1 -13 -7 0 -9 -5 -4 -13
4 -6 8 -19 8 -27 0 -11 9 -14 32 -12 47 5 73 -6 84 -36 6 -15 9 -27 8 -27 -1
0 3 -10 10 -22 9 -18 9 -23 -1 -23 -7 -1 -2 -7 12 -15 14 -8 21 -14 16 -15 -5
0 -3 -7 4 -15 7 -8 16 -12 21 -9 5 3 6 -1 3 -9 -3 -8 0 -18 5 -22 6 -3 8 -11
5 -17 -4 -6 0 -14 7 -19 11 -7 11 -9 1 -9 -10 0 -10 -5 -2 -20 6 -11 8 -26 4
-32 -4 -6 -3 -8 3 -5 6 4 13 0 17 -8 3 -8 0 -15 -6 -15 -7 0 -6 -5 2 -15 9
-10 9 -15 1 -15 -6 0 -10 -3 -10 -7 3 -20 -2 -26 -11 -13 -6 10 -10 11 -10 3
0 -9 -16 -13 -45 -13 -29 0 -45 4 -45 13 0 8 -4 7 -10 -3 -6 -10 -10 -11 -10
-2 0 8 -18 12 -55 12 -36 0 -55 -4 -55 -12 0 -6 -7 -3 -15 8 -10 13 -14 14
-13 4 2 -8 -6 -16 -19 -18 -13 -2 -23 -8 -23 -14 0 -5 -7 -8 -15 -4 -8 3 -21
-2 -30 -10 -10 -10 -15 -11 -15 -3 0 8 -5 8 -17 -2 -15 -12 -16 -12 -8 1 4 8
-2 5 -14 -7 -22 -23 -37 -31 -27 -15 3 5 -1 9 -9 9 -8 0 -12 -4 -9 -9 3 -4 0
-8 -5 -8 -6 0 -13 0 -16 0 -14 0 -41 -37 -37 -49 3 -8 1 -12 -4 -8 -10 6 -12
-33 -1 -49 3 -5 2 -16 -3 -24 -5 -9 -5 -19 1 -27 6 -7 7 -18 3 -25 -11 -18
-12 -48 -2 -54 5 -3 4 -12 -3 -20 -8 -10 -8 -14 0 -14 6 0 11 -11 11 -25 0
-14 4 -25 10 -25 6 0 6 -9 0 -25 -5 -14 -6 -24 -2 -24 19 3 26 -2 13 -10 -11
-7 -9 -13 8 -30 23 -23 28 -36 9 -25 -10 6 -10 5 -1 -8 7 -8 9 -19 5 -23 -4
-5 -1 -5 6 -1 6 4 12 2 12 -3 0 -6 7 -11 16 -11 20 0 45 -25 36 -36 -4 -5 1
-2 10 5 15 11 18 11 18 -2 0 -8 6 -18 13 -20 9 -4 9 -6 0 -6 -7 -1 -13 -5 -13
-11 0 -5 5 -9 12 -7 8 1 13 -17 15 -58 2 -33 6 -71 10 -85 4 -14 7 -29 8 -35
0 -5 4 -16 8 -22 5 -7 4 -13 -1 -13 -12 0 -9 -30 6 -57 15 -27 15 -36 1 -27
-6 3 -4 -4 4 -17 8 -13 14 -34 13 -46 -2 -12 1 -20 6 -17 4 3 6 -8 4 -25 -2
-16 0 -35 5 -42 4 -8 3 -20 -4 -28 -8 -10 -8 -13 -1 -8 7 4 15 0 18 -9 3 -8 2
-13 -3 -10 -5 4 -7 -3 -4 -14 3 -11 9 -18 12 -15 4 2 8 -2 8 -10 0 -8 -5 -15
-10 -15 -5 0 -5 -6 2 -13 8 -10 7 -17 -1 -25 -8 -8 -9 -12 -1 -12 6 0 14 -7
17 -16 4 -10 2 -13 -7 -8 -6 4 -4 -2 6 -13 13 -15 15 -23 7 -28 -8 -5 -6 -13
7 -28 10 -11 12 -17 6 -13 -7 4 -13 2 -13 -3 0 -6 6 -11 13 -11 9 0 9 -2 -1
-9 -11 -7 -11 -9 2 -14 9 -4 16 -16 16 -27 0 -12 4 -29 9 -39 6 -10 6 -23 1
-31 -5 -8 -5 -21 1 -31 6 -12 5 -20 -2 -24 -7 -5 -4 -14 7 -26 13 -15 14 -19
3 -19 -10 -1 -8 -5 5 -15 11 -8 14 -15 7 -15 -7 0 -9 -5 -5 -12 4 -7 8 -25 9
-40 1 -14 7 -34 14 -42 9 -10 10 -16 3 -16 -6 0 -9 -7 -6 -15 4 -8 10 -13 14
-10 5 3 6 -4 3 -15 -3 -13 0 -20 8 -20 9 0 10 -3 2 -11 -7 -7 -8 -21 -3 -39 5
-18 4 -32 -3 -39 -8 -8 -8 -11 0 -11 6 0 14 -7 17 -16 4 -10 2 -13 -7 -8 -8 6
-8 3 1 -9 8 -9 11 -20 9 -25 -3 -4 -2 -14 3 -22 5 -9 4 -20 -3 -29 -8 -10 -8
-13 -1 -8 7 4 14 -2 17 -13 3 -13 1 -18 -6 -13 -8 4 -8 2 0 -9 7 -8 10 -18 6
-21 -3 -4 -1 -7 5 -7 6 0 9 -7 6 -15 -4 -9 0 -15 7 -15 12 0 12 -2 1 -9 -12
-7 -12 -11 0 -22 11 -9 13 -23 8 -46 -5 -18 -4 -33 0 -33 4 0 7 -13 6 -29 -1
-17 2 -27 8 -24 5 4 7 -3 4 -15 -3 -12 0 -29 7 -39 9 -11 10 -24 4 -34 -6 -12
-4 -19 5 -22 10 -4 12 -16 6 -46 -4 -22 -4 -38 0 -36 11 7 17 -14 16 -47 -1
-14 1 -25 5 -22 4 2 9 -5 12 -16 3 -12 1 -18 -5 -14 -6 4 -5 -3 1 -15 7 -12 9
-26 6 -31 -3 -6 -1 -10 4 -10 6 0 10 -3 10 -7 -4 -22 2 -33 13 -27 8 5 9 2 4
-11 -5 -15 -4 -16 8 -6 9 7 15 8 18 2 2 -7 105 -11 281 -12 158 0 278 -5 278
-10 1 -5 2 -13 3 -18 0 -5 4 -12 8 -16 3 -4 2 -20 -2 -35 -5 -16 -5 -29 -2
-29 18 3 26 -2 15 -9 -9 -6 -7 -17 11 -43 16 -23 21 -40 16 -49 -5 -9 -4 -20
2 -27 7 -9 7 -13 0 -13 -6 0 -10 -6 -7 -12 3 -12 11 -54 19 -113 2 -11 8 -31
13 -45 19 -48 20 -55 12 -72 -6 -10 -5 -19 2 -24 8 -4 7 -9 -2 -15 -11 -7 -11
-9 -1 -9 7 0 11 -4 7 -9 -3 -5 2 -16 10 -25 10 -10 12 -17 5 -21 -8 -5 -8 -11
-1 -19 7 -9 7 -17 -2 -26 -9 -10 -9 -11 0 -6 9 5 13 0 13 -13 0 -11 4 -22 10
-26 5 -3 7 -12 3 -20 -4 -13 11 -15 96 -15 74 0 101 -3 101 -12 0 -9 4 -8 11
2 8 11 12 12 16 3 7 -19 713 -19 713 0 0 8 3 7 10 -3 7 -12 12 -12 22 -2 6 6
23 12 36 12 16 0 21 4 16 13 -5 8 -2 8 9 -2 12 -10 17 -10 17 -1 0 8 18 11 60
8 33 -1 60 1 60 5 0 5 4 6 9 2 5 -3 13 0 17 6 4 8 9 7 15 -2 6 -10 9 -11 9 -1
0 6 8 12 18 12 10 0 24 6 31 12 11 10 13 10 7 1 -4 -7 -5 -13 -2 -13 8 0 66
58 67 67 4 53 2 93 -5 93 -5 0 -1 9 9 20 11 12 13 20 6 20 -7 0 -9 5 -6 10 4
6 11 7 17 4 6 -4 6 1 -1 14 -8 14 -8 23 -1 27 8 5 8 11 0 20 -8 9 -6 14 5 19
9 3 14 14 12 28 -2 12 -1 37 4 55 4 18 4 35 0 38 -10 6 -7 36 6 60 9 15 8 22
-5 32 -16 12 -16 13 0 7 12 -4 17 0 17 13 2 55 9 85 27 99 10 8 13 13 7 9 -9
-4 -11 -1 -7 9 3 9 11 13 16 10 6 -4 5 2 -1 14 -8 14 -8 23 -1 27 8 5 8 11 0
20 -6 7 -7 15 -3 18 4 3 8 23 7 45 0 29 3 39 13 35 7 -3 13 0 13 6 0 6 7 8 17
4 12 -5 14 -3 8 7 -6 10 -1 12 23 7 17 -4 34 -2 37 3 3 5 12 7 20 3 8 -3 15 0
15 6 0 8 4 8 14 -1 7 -7 13 -23 11 -36 -1 -12 2 -25 7 -28 4 -3 6 -10 3 -15
-4 -5 -2 -9 3 -9 6 0 8 -9 5 -20 -3 -11 0 -26 6 -34 9 -10 9 -16 1 -21 -8 -5
-7 -12 4 -24 9 -10 13 -21 10 -24 -4 -4 -2 -12 3 -19 6 -7 7 -22 3 -33 -8 -23
-1 -57 10 -50 5 3 6 -4 3 -15 -3 -13 0 -20 8 -20 10 0 10 -3 2 -11 -8 -8 -8
-20 -3 -35 6 -13 6 -24 1 -24 -5 0 -5 -15 -1 -34 5 -22 3 -39 -3 -45 -8 -8 -7
-11 2 -11 7 0 11 -6 8 -14 -3 -8 1 -20 8 -26 8 -7 13 -16 10 -20 -3 -5 0 -12
6 -16 8 -4 9 -3 5 4 -4 7 -2 12 3 12 6 0 11 -5 11 -11 0 -5 5 -7 10 -4 6 3 10
0 10 -7 0 -9 3 -9 10 2 5 8 10 10 10 3 0 -9 10 -10 40 -3 3 0 84 0 180 0 112
-1 177 -5 181 -12 4 -7 8 -6 12 3 4 10 6 10 6 2 1 -10 82 -13 372 -13 250 0
368 3 364 10 -8 13 18 8 27 -5 5 -6 8 -5 8 3 0 6 11 12 25 12 14 0 25 5 25 11
0 8 6 7 17 -2 11 -10 14 -10 9 -2 -5 10 10 13 64 13 46 0 69 4 65 10 -8 13 18
8 27 -5 5 -6 8 -5 8 3 0 7 14 12 36 12 25 0 33 3 28 13 -5 8 -2 8 9 -2 16 -12
21 -9 18 12 -1 4 8 3 19 -3 11 -6 20 -7 20 -1 0 5 7 12 16 15 8 3 13 2 10 -2
-3 -5 1 -9 9 -9 8 0 13 2 11 5 -7 6 27 41 35 36 4 -2 5 6 1 18 -4 16 -2 19 9
13 11 -7 12 -6 2 7 -7 8 -11 17 -8 20 3 2 6 23 7 46 1 23 5 42 10 42 5 0 6 5
3 10 -4 6 -12 8 -18 4 -7 -3 -3 3 8 13 17 15 19 27 15 77 -4 42 -2 60 8 63 9
4 10 9 2 18 -8 9 -8 15 0 20 6 3 8 11 5 16 -4 5 -2 9 3 9 6 0 8 9 5 20 -3 11
0 20 6 20 9 0 9 5 0 21 -8 15 -8 19 0 15 6 -4 11 0 11 8 0 14 21 16 150 16
113 0 150 3 150 13 0 8 4 7 10 -3 6 -10 10 -11 10 -2 0 7 14 12 35 12 19 0 35
4 35 9 0 5 66 10 147 10 98 1 152 6 162 14 12 10 13 9 6 -3 -7 -12 -6 -13 7
-3 8 7 19 9 23 5 5 -4 5 1 2 11 -4 9 -2 17 3 17 6 0 10 -6 10 -12 0 -8 3 -9 8
-3 9 13 13 14 110 16 52 1 82 6 82 13 0 6 5 4 10 -4 8 -13 10 -12 10 3 0 10 5
15 10 12 6 -3 10 -2 10 3 0 4 21 9 47 11 26 1 54 8 62 14 12 10 13 9 6 -3 -7
-12 -6 -13 7 -3 8 7 18 10 21 6 4 -3 7 -1 7 6 0 7 5 9 10 6 6 -3 10 0 10 7 0
10 3 9 10 -2 8 -12 11 -12 27 2 10 8 24 13 32 10 7 -2 17 2 22 9 7 12 9 11 9
-1 0 -13 1 -13 10 0 9 13 10 13 10 0 1 -8 6 -4 11 10 8 20 12 22 19 10 8 -13
10 -13 10 -1 0 8 3 12 6 8 4 -3 22 0 41 8 19 8 40 12 46 8 6 -3 7 -1 3 6 -8
12 4 19 41 24 12 2 26 7 30 12 5 4 3 5 -4 1 -6 -3 -14 -3 -17 2 -2 4 5 9 16 9
12 1 25 8 29 15 7 10 9 10 9 -2 1 -12 3 -11 11 2 11 20 34 25 24 6 -4 -7 1 -4
10 7 9 11 20 19 25 18 5 -2 6 5 3 14 -4 9 -2 14 4 10 13 -8 14 135 1 154 -8
11 -8 9 -4 -6 6 -20 6 -20 -9 -1 -8 11 -15 24 -15 29 0 4 -4 6 -9 3 -5 -3 -12
5 -15 19 -4 16 -11 22 -21 19 -9 -4 -18 1 -21 11 -5 11 -9 13 -14 5 -5 -7 -11
-6 -21 6 -12 15 -12 17 0 9 10 -5 12 -4 7 4 -6 8 -12 9 -20 2 -9 -8 -18 -5
-32 7 -25 23 -62 33 -68 18 -2 -6 -5 -3 -5 8 -1 15 -4 16 -15 7 -11 -10 -17
-7 -30 11 -11 15 -16 17 -16 8 0 -9 -3 -11 -8 -5 -13 19 -52 36 -52 24 0 -8
-4 -8 -13 -1 -7 6 -32 12 -57 15 -24 2 -46 9 -47 14 -2 6 -13 9 -23 6 -11 -3
-20 0 -20 6 0 7 -24 11 -65 11 -45 0 -65 4 -65 13 0 9 -3 8 -9 -2 -5 -8 -10
-9 -12 -2 -2 5 -19 11 -36 13 -18 1 -33 6 -33 10 0 4 -49 8 -110 8 -81 0 -110
3 -110 13 0 8 -4 7 -10 -3 -6 -10 -10 -11 -10 -2 0 6 -9 12 -20 12 -14 0 -20
7 -21 23 0 12 -3 16 -6 10 -2 -7 -9 -13 -15 -13 -6 0 -8 7 -4 15 3 8 1 15 -4
15 -6 0 -10 19 -10 43 0 24 -5 48 -12 55 -9 9 -9 12 1 12 11 0 11 3 1 15 -7 8
-10 26 -8 39 3 14 0 27 -6 29 -8 3 -13 38 -15 93 -1 49 -5 92 -7 96 -3 4 -1 8
5 8 5 0 8 8 6 18 -2 10 3 19 10 19 7 0 10 -9 8 -21 -4 -16 -2 -18 5 -7 8 11
11 9 14 -10 1 -13 13 -29 25 -35 13 -6 20 -15 15 -20 -4 -4 1 -3 10 4 14 12
16 10 11 -10 -4 -18 -3 -20 6 -8 9 12 11 11 11 -7 0 -13 4 -23 10 -23 5 0 12
-11 16 -25 3 -14 10 -23 14 -20 5 3 6 -5 3 -17 -3 -17 -2 -19 5 -9 6 8 15 10
22 6 9 -5 11 -4 6 3 -4 7 -3 12 3 12 6 0 7 7 4 17 -4 9 -2 14 3 11 10 -7 11
69 1 79 -4 3 -2 14 3 24 7 12 7 20 0 24 -7 4 -6 13 1 27 8 14 8 18 0 14 -6 -4
-13 5 -17 21 -4 15 -11 33 -16 40 -6 7 -3 13 9 16 17 4 17 5 1 6 -10 0 -18 6
-18 12 0 5 -4 8 -9 5 -5 -4 -7 4 -3 16 3 14 1 19 -6 14 -8 -5 -10 -1 -6 9 4
10 -1 22 -14 31 -12 8 -19 21 -16 29 4 8 1 15 -5 15 -6 0 -11 7 -11 16 0 9 -5
12 -12 8 -8 -5 -7 0 2 11 9 11 10 16 3 11 -7 -4 -13 -3 -13 3 0 5 5 13 11 17
8 5 8 9 -1 14 -8 5 -7 9 4 13 9 4 16 1 16 -5 0 -6 3 -8 6 -5 4 4 1 14 -7 24
-8 9 -9 14 -4 11 6 -4 17 2 24 14 10 16 10 19 -1 13 -8 -4 -7 -1 2 7 21 19 53
81 37 73 -6 -4 -4 0 7 9 10 8 15 20 11 25 -3 6 4 15 16 19 15 6 18 11 11 16
-15 9 8 37 23 28 6 -3 3 3 -5 13 -10 13 -11 16 -2 11 9 -5 13 -3 11 5 -3 28 1
40 13 33 7 -5 8 -3 3 6 -5 8 -1 18 10 26 9 7 15 19 13 26 -3 7 2 18 11 25 14
11 14 12 1 13 -12 0 -12 2 -2 8 7 5 14 22 15 39 1 17 5 29 10 26 7 -4 11 12 8
36 -2 7 2 11 6 8 5 -3 15 3 22 15 7 11 8 17 2 14 -7 -4 -8 -1 -5 8 3 9 10 14
14 11 4 -3 11 2 14 11 4 10 2 13 -6 8 -7 -4 -8 -3 -4 4 4 7 15 12 24 13 10 0
12 3 5 5 -9 4 -6 15 8 40 11 20 14 32 7 28 -9 -6 -9 -3 1 9 7 9 10 17 5 17 -5
0 0 7 11 16 17 13 18 16 5 25 -13 8 -12 11 4 24 11 8 16 15 12 15 -5 0 -2 8 5
17 12 15 12 16 -1 8 -12 -7 -13 -6 -3 6 6 8 13 36 14 62 2 26 6 47 10 47 4 0
8 72 8 160 1 102 -2 160 -8 160 -7 0 -10 95 -10 270 0 258 1 270 19 270 10 0
20 5 22 12 3 7 7 5 11 -6 5 -11 3 -15 -5 -10 -7 4 -8 3 -4 -5 6 -9 11 -9 22 0
9 7 14 8 13 3 -4 -22 2 -35 13 -28 6 4 8 3 5 -3 -4 -6 0 -19 8 -29 13 -17 16
-17 25 -4 9 12 10 12 8 -5 -2 -13 2 -19 11 -17 12 3 12 1 1 -13 -7 -9 -9 -15
-4 -14 18 3 37 -1 31 -7 -4 -4 6 -18 21 -32 15 -13 21 -21 15 -18 -9 5 -11 2
-7 -8 3 -9 11 -13 16 -10 6 4 14 1 18 -7 7 -11 19 -15 68 -21 6 -1 12 -5 12
-10 0 -5 26 -8 58 -7 32 1 63 -1 70 -4 6 -4 14 -3 17 3 5 8 11 8 20 0 9 -8 17
-7 28 5 11 10 17 11 19 3 3 -8 11 -7 28 5 14 9 20 17 14 17 -5 0 -16 -6 -24
-12 -12 -11 -12 -10 -2 3 6 9 10 18 7 20 -2 3 4 6 13 7 9 0 41 5 70 10 35 6
52 5 52 -2 0 -6 4 -4 10 4 5 8 12 11 16 8 4 -4 16 -2 28 4 11 7 24 11 28 10 4
-1 4 6 1 15 -4 11 -3 14 5 9 7 -4 12 -2 12 6 0 9 3 9 10 -2 8 -13 10 -12 11 5
1 11 1 23 0 27 0 3 12 5 26 3 25 -3 26 -2 8 11 -10 8 -15 14 -9 14 5 0 8 20 7
45 0 25 3 45 8 45 5 0 9 5 9 11 0 5 -6 7 -12 4 -7 -4 -5 0 5 8 12 10 15 17 7
22 -8 5 -8 11 1 21 9 11 9 14 -1 14 -7 0 -10 6 -7 14 3 8 -3 23 -13 34 -14 15
-16 22 -7 25 7 3 5 6 -5 6 -9 1 -20 11 -23 22 -6 17 -9 19 -16 8 -7 -11 -9
-11 -9 3 0 20 -28 37 -50 31 -13 -4 -13 -3 -1 5 12 9 13 13 1 27 -7 9 -19 14
-26 11 -7 -3 -15 2 -18 10 -4 9 -11 12 -18 8 -8 -5 -7 0 2 11 14 17 13 17 -10
10 -22 -7 -23 -6 -11 9 9 10 10 16 2 16 -6 0 -11 7 -11 15 0 8 -4 15 -10 15
-5 0 -10 9 -10 20 0 11 -4 20 -10 20 -5 0 -10 9 -10 20 0 11 6 20 13 20 9 0 8
3 -2 9 -9 6 -10 11 -2 15 6 4 11 16 11 26 0 10 6 21 13 23 9 4 9 6 -1 6 -10 1
-10 4 0 15 7 8 16 12 21 9 4 -2 7 1 7 6 0 6 -6 11 -12 11 -9 1 -7 5 3 13 9 7
16 16 17 22 0 5 6 11 13 14 7 2 9 -1 4 -10 -7 -12 -6 -12 6 0 11 10 11 15 2
18 -21 7 -15 22 6 18 11 -2 25 3 32 11 9 11 9 14 0 14 -7 0 -9 5 -6 10 4 6 11
8 16 5 5 -4 9 -1 9 5 0 6 4 9 9 5 5 -3 12 -1 16 5 3 5 0 10 -7 10 -9 1 -7 5 4
14 10 7 15 16 11 19 -3 4 -1 7 5 7 6 0 9 7 6 15 -5 11 -2 13 10 9 9 -3 16 -2
16 4 0 6 -6 13 -12 15 -10 4 -10 6 0 6 7 1 10 6 6 13 -5 7 -2 9 8 6 11 -5 15
0 14 15 -1 12 3 25 9 29 6 5 4 8 -5 8 -13 0 -13 1 0 10 8 5 11 10 5 10 -6 0
-10 37 -9 93 1 50 -2 94 -7 97 -5 3 -10 17 -11 30 -4 32 -19 49 -37 42 -9 -3
-12 -1 -7 6 4 7 2 12 -4 12 -6 0 -8 5 -4 12 5 8 2 9 -10 5 -13 -5 -17 -3 -13
7 6 14 -19 31 -37 27 -5 -1 -3 6 5 15 13 16 12 16 -10 5 -13 -7 -21 -8 -17 -2
4 5 -3 15 -15 21 -17 10 -20 9 -13 -1 4 -7 -7 -3 -24 10 -18 12 -32 17 -32 11
0 -6 -9 -4 -23 5 -13 8 -27 12 -30 8 -4 -3 -7 -1 -7 6 0 7 -4 10 -8 7 -5 -3
-8 5 -7 17 1 12 -3 25 -9 29 -6 4 -11 13 -12 20 0 7 -2 21 -2 31 -1 10 -6 15
-12 12 -17 -11 -11 7 8 21 9 7 12 14 6 14 -6 0 -9 13 -6 30 4 25 1 30 -17 30
-11 0 -21 4 -21 9 0 11 -39 2 -58 -12 -9 -7 -12 -23 -9 -43 3 -17 0 -37 -6
-44 -9 -10 -9 -11 2 -5 10 6 12 4 5 -6 -5 -8 -9 -17 -9 -21 0 -5 -4 -9 -10 -9
-14 -2 -37 -37 -31 -47 6 -10 5 -10 -87 -18 -47 -4 -72 -3 -82 6 -12 10 -15
10 -15 0 0 -9 -4 -9 -13 -2 -7 6 -65 12 -129 13 -64 1 -115 6 -112 11 3 5 11
6 17 2 7 -3 3 2 -7 10 -11 9 -24 16 -29 16 -4 0 -5 5 -1 12 5 7 3 8 -5 4 -7
-5 -19 0 -27 10 -9 11 -13 14 -10 8 3 -6 -1 -11 -9 -11 -10 0 -11 5 -4 19 7
14 6 18 -6 18 -10 0 -13 -5 -9 -12 4 -6 3 -8 -2 -5 -6 3 -11 22 -12 43 -2 20
-5 41 -7 45 -3 4 0 9 6 11 8 3 6 9 -5 20 -9 9 -16 22 -16 28 0 6 -4 8 -10 5
-5 -3 -10 -2 -10 3 0 10 -24 9 -57 -2 -22 -7 -39 -39 -34 -65 1 -8 -2 -10 -10
-5 -8 4 -10 3 -5 -5 4 -6 9 -51 10 -99 1 -48 5 -97 8 -110 4 -13 3 -20 -3 -17
-5 4 -9 1 -9 -4 0 -6 5 -11 10 -11 6 0 -3 -13 -20 -30 -17 -16 -34 -30 -37
-30 -4 0 3 9 15 20 12 12 22 24 22 27 0 4 -11 -4 -25 -17 -20 -19 -23 -26 -12
-38 10 -13 8 -14 -12 -7 -16 5 -21 4 -17 -4 4 -6 2 -11 -3 -11 -6 0 -10 -6 -8
-12 1 -8 -6 -12 -17 -10 -17 3 -18 1 -7 -12 11 -13 10 -15 -7 -11 -22 4 -57
-28 -57 -53 0 -8 -7 -17 -15 -19 -13 -4 -13 -3 0 6 8 6 10 11 4 11 -6 0 -18
-8 -25 -17 -10 -11 -10 -14 -1 -9 21 13 13 -11 -10 -28 -13 -9 -18 -14 -11
-11 8 4 8 -1 0 -19 -7 -13 -15 -22 -19 -20 -3 2 -10 -1 -14 -7 -4 -7 -3 -9 4
-5 6 3 13 2 16 -3 3 -5 -4 -11 -17 -15 -18 -5 -20 -8 -7 -16 8 -5 10 -10 4
-10 -12 0 -25 -31 -28 -65 0 -11 -7 -24 -15 -29 -11 -7 -11 -10 0 -17 10 -6
11 -9 2 -9 -9 0 -13 -20 -13 -64 0 -36 -4 -68 -10 -71 -15 -9 -12 -27 3 -19 6
4 3 -2 -7 -14 -20 -24 -36 -31 -17 -9 8 10 7 14 -3 14 -9 0 -13 -9 -11 -24 2
-16 -2 -23 -10 -19 -8 3 -16 -2 -19 -10 -3 -8 -1 -12 4 -9 6 3 7 -1 4 -9 -3
-9 -14 -16 -23 -17 -9 0 -11 -3 -4 -5 17 -7 4 -34 -16 -34 -9 0 -12 -3 -6 -8
12 -9 19 -36 7 -28 -4 2 -13 -4 -20 -15 -10 -15 -10 -19 0 -19 7 0 5 -5 -5
-11 -9 -6 -15 -14 -12 -20 4 -5 0 -9 -7 -9 -9 0 -9 -3 2 -10 11 -7 12 -10 2
-10 -9 0 -13 -11 -11 -34 2 -19 -3 -42 -11 -52 -13 -16 -13 -17 0 -9 13 8 13
6 2 -8 -8 -9 -11 -21 -7 -26 4 -7 -1 -8 -11 -4 -12 4 -15 3 -10 -5 4 -7 2 -12
-4 -12 -6 0 -8 -5 -4 -12 5 -8 2 -9 -11 -4 -14 5 -16 4 -6 -7 9 -11 7 -17 -6
-28 -16 -12 -17 -12 -6 2 10 13 10 16 -1 16 -9 0 -13 -9 -11 -24 2 -18 -2 -23
-12 -18 -11 3 -13 1 -9 -10 3 -8 1 -15 -5 -15 -6 0 -9 -7 -5 -15 3 -8 2 -14
-2 -14 -19 3 -25 -2 -12 -11 11 -7 11 -10 2 -10 -7 0 -10 -4 -7 -10 4 -6 -1
-7 -11 -3 -12 4 -15 2 -12 -8 3 -8 -2 -20 -11 -26 -14 -11 -14 -14 -1 -22 13
-9 12 -12 -5 -25 -11 -9 -16 -16 -11 -16 5 0 3 -7 -4 -15 -6 -8 -9 -19 -5 -25
3 -5 -1 -13 -10 -16 -12 -5 -13 -9 -5 -14 8 -5 7 -11 -4 -22 -11 -11 -12 -18
-3 -27 8 -8 8 -11 -2 -11 -7 0 -9 -4 -6 -10 3 -6 1 -10 -6 -10 -6 0 -9 -8 -7
-18 4 -15 0 -18 -19 -16 -14 1 -22 0 -19 -3 8 -9 -18 -31 -31 -26 -7 3 -13 0
-13 -7 0 -6 -5 -8 -11 -4 -7 4 -37 6 -68 5 -105 -3 -125 -1 -132 10 -5 8 -8 7
-12 -2 -4 -10 -6 -10 -6 -1 -1 6 -10 12 -22 12 -13 0 -18 4 -13 13 6 9 5 9 -7
0 -11 -9 -18 -8 -33 2 -10 8 -24 11 -32 8 -8 -3 -14 1 -14 8 0 11 -2 11 -10
-1 -8 -12 -10 -12 -16 3 -5 13 -10 15 -19 7 -8 -7 -15 -7 -19 -1 -3 5 -15 7
-26 4 -11 -3 -20 -1 -20 5 0 7 -63 11 -182 12 -100 0 -184 2 -186 5 -2 2 -15
0 -28 -6 -19 -7 -26 -5 -30 6 -4 8 -10 12 -15 9 -5 -3 -6 3 -2 13 6 15 5 16
-9 5 -14 -11 -16 -10 -11 10 4 18 3 20 -6 8 -9 -13 -11 -13 -11 1 0 9 -7 20
-16 23 -9 3 -14 12 -11 20 7 17 -15 15 -37 -3 -12 -10 -13 -17 -6 -26 7 -9 8
-15 1 -19 -7 -4 -7 -15 -1 -31 8 -21 6 -23 -12 -20 -12 3 -25 10 -30 17 -6 11
-8 11 -8 0 0 -10 -3 -10 -14 0 -8 7 -12 16 -10 19 2 3 -3 6 -11 6 -8 0 -12 -4
-9 -9 11 -17 -9 -7 -28 15 -11 12 -17 16 -13 10 3 -7 1 -13 -4 -13 -6 0 -11 5
-11 11 0 5 -4 7 -10 4 -5 -3 -10 -1 -10 5 0 6 -4 8 -10 5 -5 -3 -10 -1 -10 5
0 7 -53 10 -170 10 -95 -1 -170 -6 -170 -11 0 -5 -7 -9 -15 -9 -8 0 -15 -6
-15 -12 0 -10 -2 -10 -9 0 -7 11 -9 11 -14 -2 -4 -9 -1 -16 5 -16 6 0 8 -3 5
-6 -4 -4 -13 -1 -21 5 -13 11 -15 9 -11 -9 3 -15 -2 -23 -18 -29 -12 -5 -25
-7 -28 -5 -3 2 -6 -3 -6 -11 0 -12 3 -12 16 -2 14 11 14 10 2 -6 -8 -10 -20
-16 -27 -13 -7 3 -18 -3 -26 -12 -9 -11 -10 -14 0 -8 6 4 12 3 12 -2 0 -6 -11
-13 -25 -16 -14 -4 -25 -11 -25 -17 0 -7 6 -6 18 2 15 13 16 12 3 -4 -11 -14
-16 -15 -29 -5 -13 11 -14 10 -3 -9 10 -19 9 -22 -4 -17 -11 4 -13 2 -9 -9 3
-8 1 -18 -5 -22 -6 -3 -11 -15 -11 -25 0 -10 -6 -21 -12 -23 -10 -4 -10 -6 0
-6 10 -1 10 -4 0 -15 -7 -8 -16 -12 -20 -9 -5 2 -8 -1 -8 -6 0 -6 5 -11 12
-11 9 0 9 -3 0 -12 -17 -17 -17 -319 0 -336 9 -9 9 -12 -2 -12 -11 0 -11 -3
-2 -12 7 -7 12 -24 12 -38 0 -14 6 -32 13 -39 10 -11 10 -13 0 -7 -7 4 -13 2
-13 -4 0 -6 -5 -8 -12 -4 -7 5 -29 7 -50 5 -22 -1 -38 2 -38 8 0 6 -5 11 -11
11 -5 0 -7 -6 -3 -12 6 -10 4 -10 -7 0 -8 7 -41 12 -86 12 -52 0 -73 4 -73 13
0 8 -4 7 -10 -3 -6 -10 -10 -11 -10 -2 0 8 -16 12 -46 12 -41 0 -46 2 -41 20
3 11 0 20 -5 20 -6 0 -3 9 7 20 14 15 15 20 4 20 -10 1 -8 4 4 11 14 8 15 14
7 24 -7 8 -7 15 -1 19 6 4 6 18 1 37 -7 25 -7 29 4 20 10 -8 12 -5 11 12 -1
12 5 28 12 36 12 11 12 15 1 22 -11 7 -11 9 1 9 8 0 11 7 8 20 -3 11 0 20 6
20 7 0 5 5 -3 10 -11 7 -11 10 -2 10 7 0 10 5 7 10 -3 6 0 10 7 10 11 0 11 2
0 9 -10 6 -10 10 2 21 9 7 13 16 10 22 -3 5 0 15 6 23 10 12 10 15 -1 15 -11
1 -11 3 1 13 8 7 15 23 14 37 0 14 4 33 9 44 7 14 6 17 -5 10 -10 -6 -11 -5
-1 7 6 8 12 17 12 22 1 4 1 8 2 10 5 14 4 49 -1 52 -10 6 -4 50 6 48 8 -1 14
54 18 155 0 17 4 32 9 32 4 0 6 4 2 9 -3 5 -1 13 5 16 8 5 8 11 0 20 -8 10 -8
15 0 20 8 5 8 11 1 19 -6 7 -9 15 -6 18 3 3 8 25 11 49 4 24 10 45 15 47 5 2
4 12 -1 23 -8 14 -7 19 2 19 9 0 9 3 0 12 -7 7 -8 17 -2 29 7 12 7 20 0 24 -6
4 -4 13 6 23 15 15 15 16 -2 23 -15 6 -16 8 -3 8 19 1 31 35 17 49 -6 6 -6 12
1 16 8 5 8 13 1 26 -7 13 -7 21 0 25 6 4 8 11 5 16 -4 5 0 9 7 9 9 0 9 3 -2
10 -11 7 -11 10 -2 10 7 0 10 5 7 10 -3 6 -2 10 4 10 6 0 6 11 1 30 -5 17 -5
30 0 30 4 0 4 15 0 34 -4 19 -4 40 1 47 4 7 3 19 -3 26 -7 9 -7 13 2 13 9 0 9
4 2 13 -7 8 -7 18 -2 27 5 9 5 19 -2 27 -6 8 -7 13 -1 13 6 0 8 15 3 39 -6 34
-4 41 14 50 12 7 14 10 4 7 -14 -4 -17 9 -8 34 1 3 2 8 1 13 0 4 3 7 7 7 4 0
8 9 8 20 0 11 -4 20 -8 20 -5 0 -4 9 2 19 7 13 7 22 0 26 -7 4 -7 12 0 25 7
13 7 21 0 25 -8 5 -8 11 0 20 8 10 8 15 0 20 -8 5 -8 10 0 20 8 10 8 15 0 20
-8 5 -8 10 0 20 8 10 8 15 0 20 -8 5 -8 10 0 20 8 10 8 15 0 20 -8 5 -8 10 0
20 8 10 8 15 0 20 -8 5 -8 10 0 20 8 10 8 15 0 20 -8 5 -8 10 0 20 8 10 8 15
0 20 -8 5 -8 10 0 20 8 10 8 15 0 20 -8 5 -8 10 0 20 8 10 8 15 0 20 -8 5 -8
10 0 20 8 10 8 15 0 20 -8 5 -8 11 1 21 9 11 9 14 0 14 -7 0 -10 4 -6 9 3 5 0
13 -6 17 -6 3 -9 19 -5 35 3 16 2 29 -3 29 -4 0 -8 7 -8 15 0 8 3 15 7 15 4 0
7 7 7 15 0 8 -4 12 -8 10 -3 -3 -9 4 -12 15 -3 11 -1 18 4 14 5 -3 9 -1 9 4 0
6 -6 12 -14 15 -7 3 -19 26 -27 51 -7 25 -17 46 -22 46 -4 0 -5 -5 -1 -12 5
-7 3 -8 -5 -4 -7 5 -17 19 -22 33 -6 16 -14 23 -24 19 -13 -4 -13 -2 -5 14 9
16 7 18 -16 14 -15 -3 -23 -1 -20 5 4 5 2 12 -3 15 -5 4 -12 2 -16 -4 -4 -6
-13 -7 -23 -2 -12 6 -25 0 -43 -19 -15 -16 -24 -31 -20 -35 3 -4 -4 -1 -17 5
-22 12 -23 11 -12 -9 7 -13 8 -20 2 -17 -5 4 -18 -1 -28 -9 -10 -9 -13 -12 -5
-8 10 5 12 3 7 -5 -5 -7 -14 -10 -22 -7 -8 3 -14 3 -14 0 0 -2 10 -9 23 -14
17 -7 18 -9 5 -9 -10 -1 -18 -6 -18 -12 0 -5 -4 -8 -9 -4 -5 3 -12 1 -15 -4
-4 -5 -1 -13 5 -17 8 -5 9 -3 4 6 -5 9 -4 11 3 6 9 -5 9 -12 0 -26 -7 -10 -17
-16 -23 -12 -5 3 -4 -2 4 -12 12 -15 12 -17 0 -14 -9 2 -13 -4 -11 -14 2 -10
-2 -18 -9 -18 -8 0 -7 -5 2 -17 9 -10 9 -14 2 -10 -8 5 -14 -5 -18 -30 -3 -21
-12 -49 -20 -63 -12 -23 -12 -27 3 -38 15 -10 15 -11 -2 -5 -16 5 -18 3 -14
-15 4 -12 2 -22 -4 -22 -6 0 -8 -11 -4 -27 5 -21 4 -24 -4 -13 -10 15 -11 10
-14 -82 0 -14 -4 -24 -7 -22 -4 2 -9 -3 -13 -11 -3 -8 -1 -17 5 -21 6 -4 4
-13 -7 -25 -9 -11 -14 -22 -11 -25 3 -4 2 -14 -3 -23 -5 -10 -5 -23 0 -31 5
-9 5 -19 -2 -27 -6 -7 -7 -13 -3 -13 4 0 1 -8 -6 -17 -11 -13 -11 -15 -1 -9
10 6 10 1 -2 -21 -11 -23 -12 -33 -3 -42 8 -8 8 -11 -3 -11 -7 0 -11 -3 -8 -6
4 -3 0 -17 -7 -31 -9 -16 -11 -33 -6 -41 5 -9 5 -28 1 -43 -5 -17 -4 -31 3
-39 9 -8 8 -10 -5 -5 -10 4 -16 1 -15 -7 2 -62 -5 -188 -10 -185 -5 3 -8 -7
-9 -21 0 -15 -3 -38 -6 -52 -3 -14 -1 -31 4 -37 7 -8 7 -18 1 -25 -5 -7 -8
-24 -6 -38 7 -48 3 -86 -11 -109 -7 -10 -5 -12 3 -6 10 6 11 3 2 -13 -6 -11
-11 -59 -11 -106 l0 -86 -209 0 c-191 0 -242 6 -211 25 8 5 8 11 0 20 -6 7 -7
16 -2 19 10 6 9 36 -1 53 -4 6 -3 15 3 18 8 5 8 11 0 20 -8 10 -8 15 0 20 8 5
8 10 0 20 -8 10 -8 15 0 20 8 5 8 11 -1 21 -9 11 -9 17 0 28 9 10 9 16 1 21
-6 4 -7 12 -3 18 10 15 10 38 0 54 -4 6 -3 15 3 18 8 5 8 11 0 20 -8 10 -8 15
0 20 8 5 8 10 0 20 -8 10 -8 15 0 20 8 5 8 11 -1 21 -9 11 -9 17 0 28 9 10 9
16 1 21 -6 4 -7 12 -3 18 10 15 10 38 0 54 -4 6 -3 15 3 18 8 5 8 11 0 20 -8
10 -8 15 0 20 8 5 8 10 0 20 -8 10 -8 15 0 20 8 5 8 11 -1 21 -9 11 -9 17 0
28 9 10 9 16 1 21 -7 4 -8 11 -1 18 12 15 12 29 0 44 -7 7 -6 14 1 18 8 5 6
14 -7 28 -12 14 -13 18 -3 12 13 -8 13 -6 1 8 -8 10 -11 27 -7 42 4 14 3 25
-1 25 -9 0 -8 108 1 117 3 4 1 12 -5 20 -9 10 -8 13 1 13 9 0 9 4 2 13 -7 8
-7 18 -2 27 5 9 5 19 -2 27 -6 8 -6 13 -1 13 5 0 10 7 10 15 0 8 -4 15 -9 15
-5 0 -7 4 -3 9 3 5 0 13 -7 17 -8 5 -6 10 8 15 15 6 16 8 3 8 -18 1 -33 27
-20 35 9 6 8 36 -2 53 -4 6 -3 15 3 18 8 5 7 11 -1 21 -7 9 -8 19 -2 27 11 15
11 27 -2 47 -5 8 -12 64 -16 124 -4 63 -12 112 -18 114 -7 2 -8 10 -1 22 7 13
7 21 0 25 -8 5 -7 11 1 21 9 11 8 15 -5 20 -9 3 -16 10 -16 16 0 5 4 7 9 4 5
-4 7 3 4 14 -3 11 -9 18 -12 15 -4 -2 -8 2 -8 10 0 8 4 15 8 15 5 0 7 6 4 13
-4 11 -14 76 -17 104 -1 7 -5 10 -9 8 -4 -3 -10 2 -13 11 -3 8 -2 13 3 10 5
-4 7 3 4 14 -3 11 -9 18 -12 15 -4 -2 -8 2 -8 10 0 8 4 15 9 15 12 0 5 23 -12
38 -13 12 -13 13 0 6 12 -7 13 -5 3 8 -7 8 -10 18 -6 21 3 4 1 7 -7 7 -10 0
-10 3 -1 14 9 10 9 16 1 21 -8 5 -8 10 0 20 8 9 8 15 0 20 -5 3 -10 15 -10 26
0 13 -4 18 -12 13 -10 -5 -10 -4 -1 6 10 11 9 16 -5 27 -10 9 -11 12 -2 7 13
-7 13 -6 1 9 -8 10 -11 20 -8 23 3 3 -1 21 -9 41 -8 19 -10 32 -5 28 6 -3 11
-2 11 3 0 6 -6 12 -14 15 -8 3 -12 16 -11 31 2 15 -2 26 -8 26 -8 0 -7 3 1 9
11 6 10 10 -3 15 -10 3 -15 12 -11 21 3 8 0 15 -7 15 -8 0 -6 4 3 10 8 5 11
10 5 10 -5 0 -15 11 -22 25 -6 14 -7 23 -2 19 5 -3 9 2 9 10 0 8 -4 18 -10 21
-5 3 -10 15 -10 25 0 10 -5 22 -12 26 -7 5 -8 3 -3 -6 5 -9 4 -11 -4 -6 -6 4
-8 13 -4 19 4 6 8 20 8 29 1 13 -2 15 -11 7 -9 -8 -11 -5 -7 9 3 14 -2 21 -19
25 -18 5 -20 9 -10 19 15 15 16 42 0 32 -8 -5 -9 0 -6 14 4 14 1 25 -8 30 -13
7 -18 21 -28 71 -1 8 -9 19 -18 25 -8 6 -13 17 -10 25 3 8 0 11 -7 7 -6 -4
-11 -1 -11 8 0 8 -6 17 -12 19 -9 4 -9 6 1 6 11 1 10 5 -5 17 -10 8 -12 12 -4
9 8 -4 1 5 -17 19 -19 16 -30 33 -26 41 3 8 0 15 -6 15 -6 0 -11 7 -11 16 0
11 -6 14 -17 10 -15 -5 -14 -3 2 10 20 16 20 16 -4 9 -16 -5 -21 -4 -17 4 4 6
2 11 -5 11 -7 0 -10 3 -6 6 9 10 -35 54 -55 54 -11 0 -16 5 -13 10 3 6 -1 10
-9 10 -9 0 -16 5 -16 10 0 6 -9 10 -19 10 -10 0 -21 7 -25 15 -3 8 -12 12 -21
9 -8 -3 -15 -1 -15 5 0 7 -26 11 -72 11 -62 -1 -77 -4 -100 -24z m332 -110 c0
-12 -5 -7 -19 24 -11 24 -11 24 3 6 9 -11 16 -24 16 -30z m-438 -58 c-7 -7
-12 -8 -12 -2 0 14 12 26 19 19 2 -3 -1 -11 -7 -17z m613 -188 c3 -5 1 -10 -4
-10 -6 0 -11 5 -11 10 0 6 2 10 4 10 3 0 8 -4 11 -10z m4055 -2010 c0 -5 -10
-15 -22 -21 l-23 -12 20 21 c23 24 25 25 25 12z m-4606 -186 c9 -22 8 -23 -13
-21 -14 1 -17 5 -11 13 6 6 7 14 3 17 -3 4 -2 7 4 7 6 0 14 -7 17 -16z m5801
-654 c3 -5 1 -10 -4 -10 -6 0 -11 5 -11 10 0 6 2 10 4 10 3 0 8 -4 11 -10z
m35 -414 c0 -3 -4 -8 -10 -11 -5 -3 -10 -1 -10 4 0 6 5 11 10 11 6 0 10 -2 10
-4z m-1145 -2005 c-6 -5 -25 10 -25 20 0 5 6 4 14 -3 8 -7 12 -15 11 -17z
m1006 -874 c-10 -9 -11 -8 -5 6 3 10 9 15 12 12 3 -3 0 -11 -7 -18z m-3683
-852 c-3 -3 -9 2 -12 12 -6 14 -5 15 5 6 7 -7 10 -15 7 -18z"/>
<path d="M1549 7843 c-13 -15 -12 -15 9 -4 23 12 28 21 13 21 -5 0 -15 -7 -22
-17z"/>
<path d="M1990 7646 c0 -2 7 -9 15 -16 13 -11 14 -10 9 4 -5 14 -24 23 -24 12z"/>
<path d="M3229 6243 c-13 -15 -12 -15 9 -4 23 12 28 21 13 21 -5 0 -15 -7 -22
-17z"/>
<path d="M3000 5629 c0 -5 5 -7 10 -4 6 3 10 8 10 11 0 2 -4 4 -10 4 -5 0 -10
-5 -10 -11z"/>
<path d="M7435 4260 c-3 -5 -1 -10 4 -10 6 0 11 5 11 10 0 6 -2 10 -4 10 -3 0
-8 -4 -11 -10z"/>
<path d="M7423 3999 c-11 -29 -15 -31 -51 -27 -26 2 -39 -1 -39 -9 0 -7 4 -10
8 -7 4 2 9 -1 11 -7 2 -6 23 -12 46 -14 23 -1 39 1 36 6 -3 5 1 9 8 9 9 0 9 3
-2 10 -10 6 -11 10 -2 10 7 0 12 13 12 30 0 39 -12 38 -27 -1z"/>
<path d="M6275 2480 c3 -5 11 -10 16 -10 6 0 7 5 4 10 -3 6 -11 10 -16 10 -6
0 -7 -4 -4 -10z"/>
</g>
</svg>
